HIERARCHY
ROOT hip
{
	OFFSET 0.000000 0.000000 0.000000 
	CHANNELS 6 Xposition Yposition Zposition Xrotation Zrotation Yrotation
	JOINT abdomen
	{
		OFFSET 0.000000 3.402643 0.000000 
		CHANNELS 3 Xrotation Zrotation Yrotation
		JOINT chest
		{
			OFFSET 0.000000 8.438565 -0.680529 
			CHANNELS 3 Xrotation Zrotation Yrotation
			JOINT neck
			{
				OFFSET 0.000000 10.207942 -0.272212 
				CHANNELS 3 Xrotation Zrotation Yrotation
				JOINT head
				{
					OFFSET 0.000000 3.130431 0.000000 
					CHANNELS 3 Xrotation Zrotation Yrotation
					End Site
					{
						OFFSET 0.000000 3.130435 0.000000 
					}
				}
			}
			JOINT lCollar
			{
				OFFSET 3.470700 6.669187 -0.816635 
				CHANNELS 3 Yrotation Zrotation Xrotation
				JOINT lShldr
				{
					OFFSET 3.198488 0.000000 0.000000 
					CHANNELS 3 Zrotation Yrotation Xrotation
					JOINT lForeArm
					{
						OFFSET 10.139888 0.000000 0.000000 
						CHANNELS 3 Yrotation Zrotation Xrotation
						JOINT lHand
						{
							OFFSET 8.370511 0.000000 0.000000 
							CHANNELS 3 Zrotation Yrotation Xrotation
							End Site
							{
								OFFSET 4.083176 0.000000 0.000000 
							}
						}
					}
				}
			}
			JOINT rCollar
			{
				OFFSET -3.470700 6.669187 -0.816635 
				CHANNELS 3 Yrotation Zrotation Xrotation
				JOINT rShldr
				{
					OFFSET -3.198488 0.000000 0.000000 
					CHANNELS 3 Zrotation Yrotation Xrotation
					JOINT rForeArm
					{
						OFFSET -10.139888 0.000000 0.000000 
						CHANNELS 3 Yrotation Zrotation Xrotation
						JOINT rHand
						{
							OFFSET -8.370511 0.000000 0.000000 
							CHANNELS 3 Zrotation Yrotation Xrotation
							End Site
							{
								OFFSET -4.083176 0.000000 0.000000 
							}
						}
					}
				}
			}
		}
	}
	JOINT lThigh
	{
		OFFSET 5.308129 -1.633274 1.361059 
		CHANNELS 3 Xrotation Zrotation Yrotation
		JOINT lShin
		{
			OFFSET -2.041588 -20.007561 0.000000 
			CHANNELS 3 Xrotation Zrotation Yrotation
			JOINT lFoot
			{
				OFFSET 0.000000 -19.190928 -1.224953 
				CHANNELS 3 Xrotation Yrotation Zrotation
				End Site
				{
					OFFSET 0.000000 -2.449906 4.627600 
				}
			}
		}
	}
	JOINT rThigh
	{
		OFFSET -5.308129 -1.633274 1.361059 
		CHANNELS 3 Xrotation Zrotation Yrotation
		JOINT rShin
		{
			OFFSET 2.041588 -20.007561 0.000000 
			CHANNELS 3 Xrotation Zrotation Yrotation
			JOINT rFoot
			{
				OFFSET 0.000000 -19.190928 -1.224953 
				CHANNELS 3 Xrotation Yrotation Zrotation
				End Site
				{
					OFFSET 0.000000 -2.449906 4.627600 
				}
			}
		}
	}
}
MOTION
Frames: 18
Frame Time: 0.033333
1.140916 50.483616 0.572818 0.927036 -4.577895 -4.144159 0.000000 0.000000 0.000000 1.332133 2.831506 -1.104580 3.820619 2.330110 -3.303211 11.305615 3.082319 -2.777299 -3.924421 3.284277 1.980816 -26.443459 24.831982 -20.809362 -39.933170 4.090710 18.389133 2.490361 -3.958169 -3.555844 3.191015 1.461300 1.677500 26.659185 -23.565063 -24.757618 41.790318 -1.434000 18.564573 -9.581940 1.553238 -3.844754 8.543353 12.284145 11.674750 1.587055 -1.371652 9.791090 -6.933361 0.076043 -1.430320 5.962809 -6.881724 -7.726676 -0.556511 3.230494 -10.835179 2.809351 0.043515 2.767860 
1.271777 50.518764 0.300634 1.213874 -4.981296 -4.970582 0.000000 0.000000 0.000000 1.837636 2.899833 -1.124079 3.440989 2.396843 -3.880090 11.675321 4.250567 -3.348742 -4.263907 2.349954 2.436770 -31.349592 25.614744 -19.452610 -43.718266 3.733255 19.783216 0.726911 -3.977442 -3.441170 3.748002 3.416800 2.039875 30.980190 -24.694017 -22.777943 46.630260 -1.109079 18.545887 -8.653478 1.273747 -3.787634 8.197698 12.543824 11.876513 1.575999 -1.525301 10.407094 -7.005220 0.078321 -0.884258 4.955925 -6.741696 -7.520967 -0.203110 3.402506 -10.286955 3.619734 0.055877 2.207167 
1.387237 50.591812 -0.010526 1.346548 -5.227560 -5.756546 0.000000 0.000000 0.000000 2.633951 2.704383 -1.300146 2.917401 2.462775 -4.593988 12.563453 4.833993 -3.645384 -4.920739 0.912581 3.143191 -35.644878 26.552172 -17.480671 -46.588100 3.240336 21.932325 -1.252135 -4.347981 -3.295027 4.377386 5.568384 2.639866 35.015312 -24.749203 -20.543768 49.316212 -1.046970 20.471434 -8.065418 -0.275031 -3.679507 7.850763 12.744274 11.828486 1.725365 -1.439749 10.545873 -6.264349 0.075975 -0.776935 4.109026 -6.706744 -7.326957 0.040451 3.468275 -9.421720 4.783959 0.044634 1.834655 
1.428101 50.592106 -0.319343 1.749561 -5.938421 -6.500727 0.000000 0.000000 0.000000 3.224421 2.850541 -1.534705 2.564692 2.606347 -5.220092 12.909431 5.456134 -3.904367 -5.974752 -0.832857 3.652130 -39.413872 26.381081 -15.850311 -47.561756 2.804877 24.487461 -2.597023 -2.772929 -3.273091 4.645205 7.337070 3.059802 38.929688 -24.333614 -16.464281 50.812099 -0.491670 19.851507 -9.105317 -0.995055 -3.668087 7.523954 13.450745 12.437576 1.588052 -1.812219 11.568904 -6.428031 0.080508 -1.618300 3.132879 -6.355014 -6.957143 0.595434 3.787410 -8.547355 6.148706 0.168425 3.114172 
1.571806 50.646465 -0.717365 2.155944 -6.662126 -8.092375 0.000000 0.000000 0.000000 3.993011 3.055614 -1.486429 2.389486 3.080575 -5.672120 13.584442 4.949210 -3.949495 -5.747132 -1.183285 4.353435 -44.884090 24.995798 -14.417672 -48.187214 2.264843 24.854248 -5.039889 -2.194404 -3.167301 5.248417 9.124758 3.610435 41.189079 -23.605782 -10.812229 50.822926 0.530957 19.216974 -10.212585 -1.572598 -3.645941 6.968470 13.803212 12.047419 1.865950 -0.908954 12.337014 -6.004308 0.070916 -1.396735 0.868194 -6.393470 -6.869689 3.102184 4.416937 -5.295425 6.999590 0.168173 2.767443 
1.566787 50.677471 -1.103864 2.511342 -7.517281 -10.206900 0.000000 0.000000 0.000000 4.680427 3.261058 -1.153811 2.608291 3.042665 -5.485802 14.226091 5.182597 -4.020150 -5.829724 -2.298906 4.938001 -48.466007 24.361792 -11.543830 -48.810387 1.328023 26.464790 -6.364954 0.468671 -3.294541 6.053683 10.432416 4.082084 47.463837 -22.538467 -12.442156 51.937569 0.014678 20.624889 -6.967519 -3.641611 -3.494543 7.057526 14.791821 13.029494 1.888101 -1.310861 13.497287 -6.028814 0.080103 -1.552638 -1.600082 -6.270318 -6.549483 6.481160 4.900181 -0.325303 7.574857 0.205611 3.068335 
1.577851 50.636452 -1.470633 3.367775 -7.362443 -12.152659 0.000000 0.000000 0.000000 4.825726 2.811921 -1.163105 2.260810 2.858523 -5.367787 15.190264 4.658467 -3.664055 -5.990948 -3.231875 5.007573 -53.108440 23.557137 -10.444982 -49.194485 1.083043 27.878181 -8.451936 -1.036658 -3.113832 6.647976 11.084905 4.114527 51.456985 -22.342335 -9.668337 50.508610 0.566456 23.084816 -6.833167 -4.348197 -3.463844 6.403051 14.800197 12.897513 1.909971 -1.519791 15.409946 -6.103926 0.121143 -1.716069 -3.446021 -7.339630 -6.947416 7.758268 5.651224 6.967194 9.261930 0.439168 5.091776 
1.573711 50.585625 -1.780099 3.849717 -7.961359 -14.311818 0.000000 0.000000 0.000000 5.150846 3.066084 -0.830979 2.506737 3.094007 -4.928914 15.429097 3.509612 -3.355875 -5.697148 -3.294552 5.292532 -57.550766 22.610001 -8.438075 -50.368668 0.541837 29.133978 -8.342556 -1.069409 -3.110074 7.058754 11.777216 4.317496 54.532310 -22.436239 -6.101075 49.566345 1.983729 19.509933 -7.304014 -5.645431 -3.396589 6.480484 15.542430 13.505875 1.978511 -1.675784 16.997591 -6.041174 0.132281 -2.595442 -5.360775 -7.869751 -7.416907 10.005070 6.560820 13.335399 9.370461 0.403519 4.512177 
1.451425 50.557964 -2.008685 4.188261 -7.909544 -15.966603 0.000000 0.000000 0.000000 5.315699 2.919702 -0.703704 2.740760 2.862795 -4.360753 14.943109 3.266855 -3.051379 -5.887624 -4.136854 5.392623 -61.204655 22.682241 -6.608621 -53.327023 0.169869 30.658171 -9.640898 2.262219 -3.381870 7.547661 12.254313 4.388644 57.792469 -23.601988 -3.925332 49.034645 2.823001 18.523819 -5.450685 -6.351478 -3.405050 5.796187 15.891371 13.647732 3.355918 -1.853722 18.110907 -6.541400 0.148474 -2.656095 -6.279182 -8.817976 -7.761202 10.929166 6.785285 19.062094 7.989170 0.352350 4.684532 
1.230375 50.555576 -2.201877 4.269314 -7.931244 -17.053911 0.000000 0.000000 0.000000 5.656840 2.958863 -0.517896 2.829437 2.767054 -3.891138 14.480624 2.516722 -2.707613 -5.513749 -4.152462 5.697981 -64.681534 21.014606 -4.291889 -54.960838 -0.462377 29.976250 -8.749212 3.927787 -3.538921 7.981649 12.888482 4.609771 60.416965 -25.337635 -1.990104 48.553368 3.336154 18.959913 -3.810824 -6.634347 -3.449885 6.587481 16.058483 14.038692 2.338969 -1.771903 18.383478 -6.001909 0.164389 -2.953942 -6.256988 -9.603632 -8.006519 10.002573 6.560573 18.629881 8.863186 0.407633 4.989177 
0.936584 50.559822 -2.364962 4.279033 -7.610940 -17.789902 0.000000 0.000000 0.000000 5.862524 2.910110 -0.322346 2.814364 2.553935 -3.460121 13.999255 2.126895 -2.491780 -5.287479 -4.538151 5.858557 -67.346443 19.368980 -1.726084 -56.638161 -1.076613 30.588678 -6.359703 4.580495 -3.583595 8.330044 13.374310 4.723978 62.612576 -27.498192 -0.392346 48.001274 3.597602 19.987112 -2.162796 -6.918207 -3.495484 6.647962 16.139711 14.262404 2.114254 -1.956016 19.459133 -5.505782 0.167767 -2.852538 -5.945816 -10.611042 -8.469933 8.983325 5.995628 12.536241 9.502530 0.406836 4.449969 
0.451675 50.543587 -2.503328 4.500941 -7.284775 -18.021622 0.000000 0.000000 0.000000 5.721056 2.949143 -0.410618 2.985080 2.428157 -3.069029 12.521923 1.990748 -2.178794 -5.287399 -4.321269 5.749917 -69.333649 17.955025 1.263606 -58.270370 -1.750899 31.240141 -4.852045 4.966833 -3.592189 8.544513 13.754028 4.550174 64.578865 -29.818745 1.066829 47.192513 3.731510 21.849007 -1.734669 -6.763119 -3.503463 6.697886 16.503214 14.513300 1.918945 -1.974044 18.708420 -5.339404 0.174500 -2.975829 -4.431862 -11.358663 -9.308708 5.983137 5.602549 3.995705 10.107173 0.345927 3.533028 
-0.071931 50.511196 -2.592078 4.554301 -6.544539 -18.170078 0.000000 0.000000 0.000000 5.577856 2.890493 -0.547164 2.760439 2.165621 -2.667800 12.035365 1.542321 -1.660606 -5.329334 -4.684643 5.615888 -69.541252 16.712091 5.263120 -60.420235 -2.669008 33.419041 -2.068037 4.277924 -3.524918 8.437014 13.772116 4.413471 66.143333 -31.753572 2.127044 46.508804 3.895425 22.431192 -1.507828 -6.944519 -3.513602 6.549295 16.411346 14.419690 1.841677 -1.986832 19.113234 -5.021772 0.138600 -3.147871 -2.958899 -12.464871 -10.706413 2.663159 5.460208 -5.390345 12.210284 0.288961 2.895971 
-0.820574 50.420773 -2.685230 4.502610 -6.010574 -18.298437 0.000000 0.000000 0.000000 5.467561 2.929529 -0.596422 2.597957 1.805359 -2.158977 11.352197 1.854940 -1.367735 -5.323798 -4.713511 5.518274 -68.859840 15.309613 8.132105 -62.094131 -2.542089 44.276611 -1.564989 5.452258 -3.551760 8.294497 13.479271 4.359328 67.870369 -33.985123 2.922217 46.548328 3.979515 22.659561 -2.478179 -8.045293 -3.478535 6.589805 16.735781 14.664380 1.714574 -1.954150 19.521023 -4.397868 0.176497 -3.571099 -1.094507 -12.818148 -11.212469 -0.721188 4.710772 -12.418501 13.378201 0.205183 2.081366 
-1.693103 50.267815 -2.768357 4.377048 -5.223621 -18.841642 0.000000 0.000000 0.000000 5.292230 2.763598 -0.420375 2.297768 1.435090 -1.445593 10.842548 2.011390 -1.035547 -5.223480 -4.881684 5.335875 -66.502266 13.780025 11.518864 -63.393269 -3.127553 48.414124 0.247859 3.919095 -3.509652 8.704432 13.227082 4.182135 68.835052 -35.089531 3.813541 44.655758 4.336959 22.635519 -2.307436 -6.202851 -3.492681 7.049328 16.980881 15.035316 1.733983 -1.974953 19.324516 -4.264353 0.201098 -4.597408 -0.567143 -13.186727 -10.945580 -1.258741 3.473097 -15.897101 14.074105 0.226076 1.881043 
-2.736898 50.068779 -2.870731 4.126573 -4.418028 -19.562771 0.000000 0.000000 0.000000 5.172264 2.578123 -0.078046 1.987596 1.122955 -0.732473 10.419641 1.708869 -0.664350 -5.168609 -5.184875 5.182091 -62.816772 12.266189 14.571442 -64.321487 -3.880853 48.244926 0.187685 1.899669 -3.477983 9.139077 12.919526 4.084313 69.839417 -36.484318 3.741853 44.425217 4.015523 24.562571 -1.482550 -6.433844 -3.514531 7.806765 17.532541 15.978312 1.666005 -2.480969 19.336481 -3.941727 0.209213 -5.552380 0.018814 -13.473984 -10.580644 -1.367327 2.537114 -14.886233 14.331532 0.267154 2.217923 
-3.949365 49.794350 -3.095671 4.815557 -3.991272 -19.316881 0.000000 0.000000 0.000000 4.439463 2.861233 -0.469141 1.460083 1.074208 -0.253862 9.515029 2.226553 -0.165890 -5.468240 -4.648956 4.562492 -59.643070 11.170568 16.540249 -64.759834 -4.499706 46.036125 -0.500131 0.830779 -3.454230 8.764089 12.668496 3.434297 70.010590 -37.589993 4.347036 44.353813 4.009695 25.554026 -1.127470 -6.195844 -3.520731 7.145513 18.736895 16.331688 1.802312 -1.967797 18.763990 -3.313026 0.210354 -7.209297 0.545772 -13.034618 -10.664693 -1.809698 3.097789 -14.597468 11.049043 0.268776 3.055277 
-5.368973 49.558113 -3.315516 4.602633 -3.931829 -19.863628 0.000000 0.000000 0.000000 4.422184 3.027270 -0.400863 1.395182 1.210908 0.400508 9.261461 2.070269 0.371557 -5.481868 -4.356141 4.560236 -56.618710 10.451587 17.017435 -64.560692 -4.884827 44.291344 -0.893494 0.543188 -3.436391 8.922670 13.150495 3.340869 69.322945 -38.079811 4.813794 44.119785 4.239172 24.313339 -1.672852 -6.044889 -3.516720 8.103863 19.823318 17.071692 1.829928 -0.942025 17.467690 -3.112662 0.275833 -8.918333 1.228657 -11.838239 -10.848556 -1.930775 4.145607 -17.213274 7.434394 0.141863 2.877172 
